<?xml version="1.0" encoding="utf-8"?>
<!-- Generator: Adobe Illustrator 15.1.0, SVG Export Plug-In  -->
<!DOCTYPE svg PUBLIC "-//W3C//DTD SVG 1.1//EN" "http://www.w3.org/Graphics/SVG/1.1/DTD/svg11.dtd" [
	<!ENTITY ns_flows "http://ns.adobe.com/Flows/1.0/">
]>
<svg version="1.1"
	 xmlns="http://www.w3.org/2000/svg" xmlns:xlink="http://www.w3.org/1999/xlink" xmlns:a="http://ns.adobe.com/AdobeSVGViewerExtensions/3.0/"
	 x="0px" y="0px" width="25px" height="20px" viewBox="-0.495 -2.771 25 20" enable-background="new -0.495 -2.771 25 20"
	 xml:space="preserve">
<defs>
</defs>
<path fill="#FFFFFF" d="M0,8.994l1.619-1.015c0,0,2.398,1.904,2.884,1.904c0.481,0,5.506-3.575,5.654-3.741
	c0.141-0.17-5.899-4.67-5.899-4.67l1.714-1.087c0,0,7.811,2.977,8.438,3.145c1.292-0.645,5.463-4.156,8.461-3.433
	c2.37,0.46-4.348,4.709-6.236,5.922l0.027,8.776l-1.453,0.8l-2.855-6.989c0,0-6.67,4.4-8.654,4.16C2.54,12.544,1.138,10.472,0,8.994
	"/>
</svg>
