<?xml version="1.0" encoding="utf-8"?>
<!-- Generator: Adobe Illustrator 15.1.0, SVG Export Plug-In  -->
<!DOCTYPE svg PUBLIC "-//W3C//DTD SVG 1.1 Basic//EN" "http://www.w3.org/Graphics/SVG/1.1/DTD/svg11-basic.dtd" [
	<!ENTITY ns_flows "http://ns.adobe.com/Flows/1.0/">
]>
<svg version="1.1" baseProfile="basic"
	 xmlns="http://www.w3.org/2000/svg" xmlns:xlink="http://www.w3.org/1999/xlink" xmlns:a="http://ns.adobe.com/AdobeSVGViewerExtensions/3.0/"
	 x="0px" y="0px" width="60px" height="60px" viewBox="-3.421 -3.225 60 60" enable-background="new -3.421 -3.225 60 60"
	 xml:space="preserve">
<defs>
</defs>
<path fill="#FFFCFC" d="M0,25.969c1.335-5.102,17.13-3.942,17.13-3.942l5.044-9.119l-2.02-0.012l0.021-3.564l3.92,0.021L29.496,0
	l2.138,0.01l-4.39,19.818l-0.015,2.613l14.606,1.271l4.804-9.002l2.615,0.014l-1.956,9.733c0,0,4.51,0.62,5.455,1.695v0.081
	c-0.958,1.064-5.476,1.633-5.476,1.633l1.846,9.753l-2.613-0.015l-4.701-9.056l-14.621,1.104l-0.014,2.613l4.162,19.866
	l-2.139-0.013l-5.292-9.417l-3.921-0.021l0.021-3.565l2.021,0.012l-4.939-9.177c0,0-15.809,0.978-17.085-4.136L0,25.969z"/>
</svg>
