<?xml version="1.0" encoding="utf-8"?>
<!-- Generator: Adobe Illustrator 15.1.0, SVG Export Plug-In  -->
<!DOCTYPE svg PUBLIC "-//W3C//DTD SVG 1.1 Basic//EN" "http://www.w3.org/Graphics/SVG/1.1/DTD/svg11-basic.dtd" [
	<!ENTITY ns_flows "http://ns.adobe.com/Flows/1.0/">
]>
<svg version="1.1" baseProfile="basic"
	 xmlns="http://www.w3.org/2000/svg" xmlns:xlink="http://www.w3.org/1999/xlink" xmlns:a="http://ns.adobe.com/AdobeSVGViewerExtensions/3.0/"
	 x="0px" y="0px" width="320px" height="200px" viewBox="10.837 -2.742 320 200" enable-background="new 10.837 -2.742 320 200"
	 xml:space="preserve">
<defs>
</defs>
<path fill="#FFFCFC" d="M1.427,192.881L0,191.479c0.591-0.601,1.183-1.195,1.777-1.784l1.407,1.422
	C2.597,191.698,2.011,192.287,1.427,192.881z M8.97,185.668l-1.333-1.49c1.254-1.122,2.534-2.229,3.806-3.292l1.282,1.535
	C11.471,183.469,10.207,184.562,8.97,185.668z M18.961,177.508l-1.19-1.607c1.349-0.999,2.729-1.982,4.103-2.921l1.128,1.652
	C21.649,175.556,20.29,176.524,18.961,177.508z M240.579,171.606l-0.043-2c1.637-0.036,3.285-0.142,4.897-0.315l0.215,1.988
	C243.979,171.458,242.273,171.569,240.579,171.606z M232.466,171.266c-0.49-0.051-0.982-0.107-1.477-0.17
	c-0.074-0.011-1.352-0.2-3.591-0.673l0.412-1.957c2.173,0.458,3.437,0.646,3.449,0.648c0.46,0.058,0.938,0.112,1.415,0.163
	L232.466,171.266z M29.691,170.37l-1.019-1.721c1.448-0.857,2.923-1.689,4.385-2.475l0.946,1.762
	C32.566,168.708,31.115,169.527,29.691,170.37z M253.641,169.851l-0.488-1.939c1.572-0.396,3.151-0.87,4.694-1.408l0.658,1.889
	C256.907,168.95,255.271,169.44,253.641,169.851z M219.538,168.47c-1.616-0.458-3.242-0.952-4.834-1.469l0.617-1.902
	c1.568,0.509,3.17,0.996,4.762,1.447L219.538,168.47z M265.968,165.191l-0.912-1.779c1.439-0.738,2.877-1.553,4.274-2.421
	l1.055,1.699C268.942,163.586,267.456,164.428,265.968,165.191z M41.108,164.43l-0.823-1.822c1.527-0.689,3.088-1.354,4.639-1.975
	l0.743,1.857C44.143,163.1,42.609,163.753,41.108,164.43z M207.102,164.282c-1.558-0.61-3.126-1.261-4.663-1.933l0.801-1.832
	c1.514,0.661,3.059,1.302,4.593,1.903L207.102,164.282z M53.125,159.803l-0.613-1.904c1.582-0.51,3.209-0.995,4.834-1.442
	l0.531,1.928C56.279,158.825,54.681,159.302,53.125,159.803z M160.956,158.943c-1.614-0.007-3.306-0.042-5.029-0.104L156,156.84
	c1.702,0.062,3.372,0.096,4.964,0.103L160.956,158.943z M195.146,158.875c-1.501-0.776-2.992-1.589-4.434-2.416l0.996-1.734
	c1.416,0.813,2.882,1.611,4.357,2.375L195.146,158.875z M169.015,158.728l-0.121-1.996c1.683-0.102,3.342-0.24,4.934-0.412
	l0.215,1.988C172.42,158.483,170.729,158.625,169.015,158.728z M147.902,158.378c-1.662-0.126-3.328-0.27-4.998-0.425l0.186-1.992
	c1.659,0.155,3.313,0.297,4.963,0.423L147.902,158.378z M276.995,157.988l-1.256-1.557c1.261-1.017,2.513-2.103,3.723-3.227
	l1.361,1.465C279.58,155.825,278.292,156.942,276.995,157.988z M134.93,157.132c-1.544-0.171-3.091-0.347-4.641-0.522l-0.33-0.038
	l0.226-1.986l0.33,0.037c1.548,0.176,3.092,0.352,4.634,0.521L134.93,157.132z M182.036,157.098l-0.389-1.963
	c1.634-0.322,3.254-0.693,4.815-1.103l0.506,1.936C185.368,156.386,183.709,156.767,182.036,157.098z M65.594,156.533l-0.402-1.959
	c1.635-0.336,3.301-0.645,4.953-0.917l0.326,1.973C68.844,155.898,67.204,156.203,65.594,156.533z M122.013,155.671
	c-1.651-0.183-3.305-0.36-4.962-0.527l0.201-1.99c1.663,0.169,3.324,0.347,4.981,0.529L122.013,155.671z M78.337,154.575
	l-0.207-1.99c1.657-0.172,3.344-0.317,5.015-0.433l0.137,1.996C81.634,154.261,79.971,154.405,78.337,154.575z M109.107,154.426
	c-1.652-0.129-3.308-0.241-4.966-0.335l0.112-1.996c1.673,0.094,3.342,0.208,5.009,0.337L109.107,154.426z M91.22,153.812l-0.033-2
	c1.66-0.027,3.335-0.03,5.03-0.007l-0.028,2C94.514,153.782,92.858,153.785,91.22,153.812z M194.691,153.522l-0.703-1.873
	c1.535-0.575,3.069-1.209,4.559-1.883l0.824,1.822C197.842,152.28,196.267,152.93,194.691,153.522z M183.856,152.186
	c-1.409-0.954-2.792-1.941-4.112-2.936l1.203-1.598c1.293,0.975,2.649,1.942,4.03,2.877L183.856,152.186z M286.458,148.856
	l-1.504-1.318c1.063-1.214,2.122-2.496,3.145-3.81l1.578,1.229C288.631,146.3,287.548,147.613,286.458,148.856z M206.564,147.868
	l-1.01-1.727c1.402-0.819,2.809-1.702,4.181-2.624l1.115,1.66C209.444,146.123,208.002,147.028,206.564,147.868z M173.495,144.122
	c-1.253-1.122-2.487-2.293-3.668-3.479l1.417-1.412c1.155,1.159,2.362,2.304,3.585,3.4L173.495,144.122z M217.363,140.396
	l-1.24-1.568c1.285-1.016,2.576-2.076,3.839-3.152l1.298,1.521C219.979,138.29,218.668,139.366,217.363,140.396z M294.362,138.37
	l-1.678-1.09c0.887-1.364,1.761-2.783,2.597-4.217l1.729,1.008C296.157,135.533,295.266,136.979,294.362,138.37z M164.4,134.642
	c-1.069-1.305-2.106-2.655-3.081-4.013l1.624-1.166c0.95,1.322,1.961,2.639,3.003,3.911L164.4,134.642z M227.242,131.792
	l-1.383-1.445c1.205-1.153,2.392-2.331,3.524-3.498l1.436,1.393C229.669,129.426,228.465,130.621,227.242,131.792z M300.819,126.955
	l-1.795-0.881c0.716-1.459,1.42-2.972,2.092-4.497l1.83,0.807C302.264,123.933,301.548,125.471,300.819,126.955z M156.945,123.825
	c-0.835-1.462-1.63-2.967-2.363-4.473l1.799-0.875c0.713,1.466,1.487,2.932,2.301,4.355L156.945,123.825z M236.256,122.271
	l-1.523-1.295c1.09-1.281,2.141-2.576,3.123-3.848l1.582,1.223C238.437,119.648,237.366,120.966,236.256,122.271z M305.961,114.904
	l-1.877-0.689c0.567-1.544,1.113-3.123,1.624-4.691l1.902,0.619C307.092,111.734,306.537,113.336,305.961,114.904z M151.429,111.908
	c-0.571-1.572-1.101-3.188-1.573-4.803l1.919-0.563c0.461,1.574,0.977,3.149,1.534,4.682L151.429,111.908z M244.096,111.73
	l-1.689-1.07c0.905-1.431,1.741-2.862,2.482-4.254l1.766,0.939C245.889,108.782,245.028,110.256,244.096,111.73z M309.887,102.406
	l-1.934-0.51c0.42-1.589,0.817-3.214,1.184-4.83l1.951,0.442C310.716,99.147,310.313,100.795,309.887,102.406z M249.933,99.878
	l-1.895-0.643c0.544-1.599,0.964-3.177,1.249-4.69l1.965,0.37C250.95,96.521,250.506,98.191,249.933,99.878z M147.97,99.251
	c-0.31-1.632-0.577-3.309-0.796-4.985l1.983-0.259c0.214,1.638,0.476,3.276,0.778,4.871L147.97,99.251z M312.654,89.604
	l-1.973-0.335c0.277-1.632,0.53-3.283,0.75-4.908l1.982,0.269C313.19,86.277,312.935,87.951,312.654,89.604z M249.706,86.826
	c-0.094-1.563-0.286-3.196-0.572-4.853l1.971-0.341c0.299,1.729,0.5,3.437,0.598,5.074L249.706,86.826z M146.478,86.229
	c-0.065-1.472-0.098-2.981-0.098-4.486l0.001-0.561l2,0.011l-0.001,0.55c0,1.476,0.032,2.956,0.096,4.397L146.478,86.229z
	 M314.275,76.623l-1.994-0.16c0.132-1.638,0.235-3.306,0.31-4.957l1.998,0.089C314.514,73.27,314.408,74.962,314.275,76.623z
	 M247.235,74.35c-0.486-1.516-1.051-3.075-1.678-4.633l1.855-0.747c0.646,1.603,1.227,3.208,1.727,4.77L247.235,74.35z
	 M148.872,73.337l-1.983-0.255c0.217-1.693,0.509-3.378,0.868-5.011l1.953,0.429C149.364,70.075,149.083,71.703,148.872,73.337z
	 M312.719,63.562c-0.021-1.647-0.074-3.316-0.159-4.959l1.998-0.103c0.085,1.668,0.14,3.363,0.161,5.036L312.719,63.562z
	 M242.239,62.547c-0.76-1.449-1.573-2.901-2.42-4.314l1.717-1.027c0.865,1.446,1.698,2.931,2.475,4.414L242.239,62.547z
	 M151.948,60.982l-1.869-0.712c0.602-1.579,1.286-3.149,2.034-4.667l1.794,0.885C153.187,57.95,152.527,59.462,151.948,60.982z
	 M235.459,51.63c-0.976-1.344-1.99-2.661-3.018-3.916l1.549-1.267c1.051,1.285,2.089,2.633,3.088,4.008L235.459,51.63z
	 M311.901,50.695c-0.19-1.643-0.419-3.294-0.679-4.91l1.975-0.317c0.265,1.644,0.497,3.325,0.69,4.997L311.901,50.695z
	 M157.881,49.729l-1.646-1.135c0.946-1.373,1.976-2.738,3.061-4.057l1.545,1.271C159.791,47.083,158.795,48.402,157.881,49.729z
	 M227.144,41.855c-1.196-1.189-2.414-2.312-3.62-3.335l1.295-1.524c1.245,1.057,2.502,2.215,3.735,3.441L227.144,41.855z
	 M166.214,40.057l-1.377-1.45c1.104-1.048,2.273-2.088,3.474-3.092l0.322-0.267l1.272,1.543l-0.313,0.259
	C168.425,38.025,167.288,39.038,166.214,40.057z M309.672,38.016c-0.391-1.625-0.821-3.231-1.281-4.777l1.916-0.57
	c0.471,1.58,0.911,3.221,1.311,4.88L309.672,38.016z M217.184,33.907c-1.401-0.863-2.846-1.654-4.293-2.351l0.867-1.802
	c1.509,0.726,3.015,1.55,4.475,2.449L217.184,33.907z M176.352,32.38l-0.975-1.746c1.499-0.837,3.05-1.585,4.609-2.224l0.758,1.851
	C179.259,30.87,177.781,31.583,176.352,32.38z M205.581,28.81c-1.573-0.431-3.178-0.768-4.77-1.002l0.291-1.979
	c1.671,0.246,3.355,0.6,5.007,1.052L205.581,28.81z M188.207,28.049l-0.371-1.966c1.677-0.315,3.389-0.525,5.087-0.623l0.115,1.997
	C191.425,27.55,189.799,27.749,188.207,28.049z M305.785,25.779c-0.622-1.537-1.297-3.052-2.004-4.504l1.797-0.876
	c0.729,1.493,1.422,3.051,2.061,4.63L305.785,25.779z M299.911,14.423c-0.906-1.387-1.869-2.728-2.863-3.986l1.57-1.239
	c1.03,1.305,2.028,2.695,2.967,4.132L299.911,14.423z M291.725,4.701c-1.21-1.103-2.482-2.139-3.782-3.081L289.114,0
	c1.361,0.985,2.693,2.07,3.958,3.223L291.725,4.701z"/>
</svg>
