<?xml version="1.0" encoding="utf-8"?>
<!-- Generator: Adobe Illustrator 15.1.0, SVG Export Plug-In  -->
<!DOCTYPE svg PUBLIC "-//W3C//DTD SVG 1.1//EN" "http://www.w3.org/Graphics/SVG/1.1/DTD/svg11.dtd" [
	<!ENTITY ns_flows "http://ns.adobe.com/Flows/1.0/">
]>
<svg version="1.1"
	 xmlns="http://www.w3.org/2000/svg" xmlns:xlink="http://www.w3.org/1999/xlink" xmlns:a="http://ns.adobe.com/AdobeSVGViewerExtensions/3.0/"
	 x="0px" y="0px" width="143px" height="36px" viewBox="0.052 -0.091 143 36" enable-background="new 0.052 -0.091 143 36"
	 xml:space="preserve">
<defs>
</defs>
<rect x="17.791" y="0.141" fill="#E22425" width="107.015" height="5.033"/>
<path fill="#E22425" d="M32.806,28.472c0,0-6.651,9.467-18.686,6.645C0.109,31.332,0.554,17.785,0.554,17.785v0.084
	c0,0-0.428-13.451,13.588-17.234c12.037-2.824,18.677,6.645,18.677,6.645"/>
<path fill="#CD151B" d="M18.515,4.732c7.257,0,13.14,5.887,13.135,13.143c-0.004,7.259-5.895,13.144-13.151,13.144
	c-7.261,0-13.144-5.885-13.14-13.144C5.363,10.619,11.254,4.732,18.515,4.732"/>
<path fill="#009D5D" d="M18.515,5.311c6.938,0,12.564,5.627,12.561,12.564c-0.005,6.937-5.639,12.564-12.576,12.564
	c-6.943,0-12.565-5.627-12.561-12.564C5.942,10.938,11.571,5.311,18.515,5.311"/>
<path fill="none" stroke="#9F2719" stroke-width="0.33" stroke-miterlimit="10" d="M18.515,5.311
	c6.938,0,12.564,5.627,12.561,12.564c-0.005,6.937-5.639,12.564-12.576,12.564c-6.943,0-12.565-5.627-12.561-12.564
	C5.942,10.938,11.571,5.311,18.515,5.311z"/>
<g>
	<defs>
		<path id="SVGID_9_" d="M18.499,30.39c6.91,0,12.521-5.604,12.525-12.515c0.005-6.912-5.6-12.516-12.51-12.516
			c-6.914,0-12.525,5.604-12.529,12.516C5.98,24.787,11.585,30.39,18.499,30.39"/>
	</defs>
	<clipPath id="SVGID_11_">
		<use xlink:href="#SVGID_9_"  overflow="visible"/>
	</clipPath>
	<g clip-path="url(#SVGID_11_)">
		<defs>
			<polygon id="SVGID_10_" points="36.376,35.722 36.398,0 0.665,0 0.643,35.722 			"/>
		</defs>
		<clipPath id="SVGID_12_">
			<use xlink:href="#SVGID_10_"  overflow="visible"/>
		</clipPath>
	</g>
</g>
<g>
	<defs>
		<path id="SVGID_7_" d="M13.665,34.082l0.043,0.008c-0.028-0.008-0.058-0.018-0.086-0.027
			C13.637,34.068,13.65,34.076,13.665,34.082 M13.728,1.662L13.685,1.67c-0.014,0.006-0.027,0.012-0.043,0.02
			C13.671,1.68,13.7,1.67,13.728,1.662 M13.622,34.062C3.118,29.525,3.636,17.875,3.636,17.875S3.133,6.225,13.642,1.689
			C7.634,3.607,1.557,9.184,1.552,17.875C1.546,26.568,7.616,32.144,13.622,34.062"/>
	</defs>
	<clipPath id="SVGID_13_">
		<use xlink:href="#SVGID_7_"  overflow="visible"/>
	</clipPath>
	<g opacity="0.8" clip-path="url(#SVGID_13_)">
		<g>
			<defs>
				<polygon id="SVGID_8_" points="12.167,34.089 12.188,1.662 0.021,1.662 0,34.089 				"/>
			</defs>
			<clipPath id="SVGID_14_">
				<use xlink:href="#SVGID_8_"  overflow="visible"/>
			</clipPath>
			<path clip-path="url(#SVGID_14_)" fill="#FFFFFF" d="M12.124,33.597C1.575,29.076,2.097,17.875,2.097,17.875
				S1.589,6.676,12.144,2.15l0.044-0.488C6.149,3.557,0.016,9.141,0.011,17.875c-0.006,8.734,6.121,14.32,12.156,16.214
				L12.124,33.597z"/>
		</g>
	</g>
</g>
<g>
	<defs>
		<polygon id="SVGID_6_" points="13.708,34.089 13.728,1.662 1.562,1.662 1.541,34.089 		"/>
	</defs>
	<clipPath id="SVGID_15_">
		<use xlink:href="#SVGID_6_"  overflow="visible"/>
	</clipPath>
	<path clip-path="url(#SVGID_15_)" fill="#FFFFFF" d="M13.665,34.082C3.116,29.556,3.636,17.875,3.636,17.875
		S3.131,6.193,13.685,1.67l0.043-0.008C7.692,3.557,1.557,9.141,1.552,17.875c-0.006,8.734,6.123,14.32,12.156,16.214L13.665,34.082
		z"/>
</g>
<path fill="#E22425" d="M109.818,7.279c0,0,6.65-9.467,18.686-6.645c14.01,3.785,13.566,17.332,13.566,17.332v-0.084
	c0,0,0.428,13.451-13.588,17.234c-12.037,2.824-18.678-6.645-18.678-6.645"/>
<path fill="#CD151B" d="M124.109,31.019c-7.258,0-13.141-5.887-13.135-13.142c0.004-7.26,5.895-13.145,13.15-13.145
	c7.262,0,13.145,5.885,13.141,13.145C137.259,25.132,131.369,31.019,124.109,31.019"/>
<path fill="#009D5D" d="M124.109,30.441c-6.938,0-12.564-5.627-12.561-12.564c0.004-6.938,5.639-12.564,12.576-12.564
	c6.943,0,12.564,5.627,12.561,12.564C136.681,24.814,131.052,30.441,124.109,30.441"/>
<path fill="none" stroke="#9F2719" stroke-width="0.33" stroke-miterlimit="10" d="M124.109,30.441
	c-6.938,0-12.564-5.627-12.561-12.564c0.004-6.938,5.639-12.564,12.576-12.564c6.943,0,12.564,5.627,12.561,12.564
	C136.681,24.814,131.052,30.441,124.109,30.441z"/>
<g>
	<defs>
		<path id="SVGID_4_" d="M124.125,5.361c-6.91,0-12.521,5.604-12.525,12.516c-0.006,6.912,5.599,12.515,12.51,12.515
			c6.914,0,12.525-5.604,12.529-12.515C136.642,10.965,131.039,5.361,124.125,5.361"/>
	</defs>
	<clipPath id="SVGID_16_">
		<use xlink:href="#SVGID_4_"  overflow="visible"/>
	</clipPath>
	<g clip-path="url(#SVGID_16_)">
		<defs>
			<polygon id="SVGID_5_" points="106.248,0.029 106.224,35.751 141.958,35.751 141.98,0.029 			"/>
		</defs>
		<clipPath id="SVGID_17_">
			<use xlink:href="#SVGID_5_"  overflow="visible"/>
		</clipPath>
	</g>
</g>
<g>
	<defs>
		<path id="SVGID_2_" d="M128.958,1.67l-0.043-0.008c0.027,0.008,0.057,0.018,0.086,0.027C128.986,1.684,128.972,1.676,128.958,1.67
			 M128.896,34.089l0.043-0.008c0.014-0.006,0.027-0.012,0.043-0.02C128.953,34.072,128.923,34.082,128.896,34.089 M129.001,1.689
			c10.504,4.537,9.986,16.188,9.986,16.188s0.502,11.65-10.006,16.185c6.007-1.918,12.084-7.494,12.09-16.185
			C141.078,9.184,135.007,3.607,129.001,1.689"/>
	</defs>
	<clipPath id="SVGID_18_">
		<use xlink:href="#SVGID_2_"  overflow="visible"/>
	</clipPath>
	<g opacity="0.8" clip-path="url(#SVGID_18_)">
		<g>
			<defs>
				<polygon id="SVGID_3_" points="130.457,1.662 130.435,34.089 142.603,34.089 142.623,1.662 				"/>
			</defs>
			<clipPath id="SVGID_19_">
				<use xlink:href="#SVGID_3_"  overflow="visible"/>
			</clipPath>
			<path clip-path="url(#SVGID_19_)" fill="#FFFFFF" d="M130.5,2.154c10.549,4.521,10.027,15.723,10.027,15.723
				s0.508,11.199-10.047,15.724l-0.045,0.488c6.039-1.895,12.172-7.479,12.178-16.212c0.006-8.734-6.121-14.32-12.156-16.215
				L130.5,2.154z"/>
		</g>
	</g>
</g>
<g>
	<defs>
		<polygon id="SVGID_1_" points="128.916,1.662 128.896,34.089 141.062,34.089 141.082,1.662 		"/>
	</defs>
	<clipPath id="SVGID_20_">
		<use xlink:href="#SVGID_1_"  overflow="visible"/>
	</clipPath>
	<path clip-path="url(#SVGID_20_)" fill="#FFFFFF" d="M128.958,1.67c10.549,4.525,10.029,16.207,10.029,16.207
		s0.504,11.681-10.049,16.205l-0.043,0.008c6.035-1.895,12.17-7.479,12.176-16.212c0.006-8.734-6.123-14.32-12.156-16.215
		L128.958,1.67z"/>
</g>
<rect x="17.79" y="5.174" fill="#009D5D" width="107.016" height="25.306"/>
<rect x="17.791" y="30.898" fill="#E22425" width="107.015" height="4.754"/>
<rect x="17.791" y="30.572" fill="#CD151B" width="107.015" height="0.418"/>
<rect x="17.79" y="30.38" fill="none" width="107.016" height="0.252"/>
</svg>
