<?xml version="1.0" encoding="utf-8"?>
<!-- Generator: Adobe Illustrator 15.1.0, SVG Export Plug-In  -->
<!DOCTYPE svg PUBLIC "-//W3C//DTD SVG 1.1//EN" "http://www.w3.org/Graphics/SVG/1.1/DTD/svg11.dtd" [
	<!ENTITY ns_flows "http://ns.adobe.com/Flows/1.0/">
]>
<svg version="1.1"
	 xmlns="http://www.w3.org/2000/svg" xmlns:xlink="http://www.w3.org/1999/xlink" xmlns:a="http://ns.adobe.com/AdobeSVGViewerExtensions/3.0/"
	 x="0px" y="0px" width="335px" height="335px" viewBox="-112.057 -193.399 335 335"
	 enable-background="new -112.057 -193.399 335 335" xml:space="preserve">
<defs>
</defs>
<polygon fill="#696969" points="0,0.259 2.848,0.259 5.454,9.271 5.492,9.271 8.078,0.259 10.11,0.259 12.635,9.271 12.677,9.271 
	15.304,0.259 18.149,0.259 13.776,13.161 11.557,13.161 9.113,4.636 9.075,4.636 6.593,13.161 4.396,13.161 "/>
<path fill="#696969" d="M26.716,0c4.271,0,7.877,2.931,7.877,6.749c0,3.693-3.542,6.676-7.877,6.676
	c-4.336,0-7.873-2.982-7.873-6.676C18.843,2.931,22.442,0,26.716,0 M26.716,11.191c2.867,0,5.087-2.073,5.087-4.462
	c0-2.475-2.258-4.498-5.087-4.498c-2.826,0-5.087,2.023-5.087,4.498C21.629,9.118,23.848,11.191,26.716,11.191"/>
<path fill="#696969" d="M36.566,0.259h4.618c1.728,0,2.807,0.283,3.664,0.874c0.854,0.595,1.767,1.638,1.767,3.12
	c0,0.855-0.363,2.199-1.441,3.087c-0.895,0.729-1.753,0.907-2.503,1.065l4.089,4.756h-3.377l-3.99-4.934h-0.037v4.934h-2.789V0.259z
	 M39.355,6.432h1.786c2.301,0,2.688-1.306,2.688-1.987c0-0.715-0.509-1.95-2.688-1.95h-1.786V6.432z"/>
<polygon fill="#696969" points="48.873,0.259 51.664,0.259 51.664,5.84 51.702,5.84 56.402,0.259 59.678,0.259 54.002,6.608 
	59.678,13.161 56.402,13.161 51.702,7.497 51.664,7.497 51.664,13.161 48.873,13.161 "/>
<path fill="#696969" d="M62.853,9.462c0.137,1.292,1.139,1.729,1.996,1.729c1.094,0,2.072-0.641,2.072-1.621
	c0-1.322-0.996-1.566-2.867-2.179c-1.162-0.38-3.584-0.991-3.584-3.714C60.47,1.62,62.345,0,64.884,0
	c1.756,0,4.314,1.048,4.459,3.677h-2.848c-0.12-1.15-0.934-1.444-1.691-1.444c-0.873,0-1.543,0.538-1.543,1.308
	c0,1.117,0.976,1.357,2.502,1.792c1.24,0.351,3.945,1.171,3.945,3.979c0,2.786-2.522,4.113-4.882,4.113
	c-1.935,0-4.741-1.117-4.903-3.963H62.853z"/>
<polygon fill="#696969" points="71.703,0.259 74.486,0.259 74.486,5.509 79.882,5.509 79.882,0.259 82.671,0.259 82.671,13.161 
	79.882,13.161 79.882,7.741 74.486,7.741 74.486,13.161 71.703,13.161 "/>
<path fill="#696969" d="M92.642,0c4.275,0,7.873,2.931,7.873,6.749c0,3.693-3.541,6.676-7.873,6.676s-7.874-2.982-7.874-6.676
	C84.768,2.931,88.367,0,92.642,0 M92.642,11.191c2.87,0,5.088-2.073,5.088-4.462c0-2.475-2.258-4.498-5.088-4.498
	s-5.088,2.023-5.088,4.498C87.554,9.118,89.773,11.191,92.642,11.191"/>
<path fill="#696969" d="M102.648,0.259h3.787c1.608,0,2.993,0,4.418,1.031c0.977,0.766,1.424,1.76,1.424,2.965
	c0,1.201-0.447,2.197-1.424,2.964c-1.425,1.028-2.81,1.028-4.418,1.028h-0.998v4.914h-2.789V0.259z M105.437,6.017h0.895
	c1.205,0,3.156-0.074,3.156-1.762c0-1.691-1.914-1.76-3.053-1.76h-0.998V6.017z"/>
<path fill="#696969" d="M1.138,18.271h3.42c3.702,0,5.311,0.852,6.185,1.498c1.426,1.047,2.483,2.966,2.483,4.988
	c0,2.317-1.405,4.547-3.599,5.576c-1.387,0.662-3.32,0.836-5.007,0.836H1.138V18.271z M3.927,28.937h0.589
	c1.51,0,2.481-0.086,3.664-0.625c1.487-0.699,2.257-2.178,2.257-3.555c0-1.26-0.627-2.446-1.606-3.173
	c-1.162-0.907-2.625-1.082-4.373-1.082H3.927V28.937z"/>
<polygon fill="#696969" points="16.115,18.271 24.212,18.271 24.212,20.502 18.903,20.502 18.903,23.656 23.988,23.656 
	23.988,25.886 18.903,25.886 18.903,28.938 24.212,28.938 24.212,31.169 16.115,31.169 "/>
<path fill="#696969" d="M39.106,18.271h2.181l6.307,12.898h-3.07l-1.611-3.329h-5.391l-1.607,3.329h-3.075L39.106,18.271z
	 M38.458,25.59h3.458l-1.707-3.953h-0.045L38.458,25.59z"/>
<path fill="#696969" d="M49.769,18.271h8.099v2.231h-5.311v3.154h5.087v2.229h-5.087v3.052h5.311v2.231h-8.099V18.271z
	 M52.209,16.362l3.163-1.65l0.809,1.244l-3.219,1.524L52.209,16.362z"/>
<path fill="#696969" d="M61.183,18.271h4.623c1.73,0,2.807,0.279,3.66,0.872c0.855,0.591,1.77,1.638,1.77,3.118
	c0,0.855-0.365,2.199-1.443,3.084c-0.898,0.736-1.75,0.907-2.502,1.066l4.092,4.758h-3.381l-3.988-4.936h-0.047v4.936h-2.783V18.271
	z M63.966,24.442h1.795c2.302,0,2.686-1.308,2.686-1.988c0-0.717-0.508-1.952-2.686-1.952h-1.795V24.442z"/>
<polygon fill="#696969" points="73.697,18.271 81.796,18.271 81.796,20.502 76.486,20.502 76.486,23.656 81.57,23.656 81.57,25.886 
	76.486,25.886 76.486,28.938 81.796,28.938 81.796,31.169 73.697,31.169 "/>
<path fill="#696969" d="M92.356,18.009c4.269,0,7.874,2.929,7.874,6.748c0,3.693-3.539,6.672-7.874,6.672
	c-4.339,0-7.874-2.979-7.874-6.672C84.482,20.938,88.08,18.009,92.356,18.009 M92.356,29.202c2.869,0,5.087-2.076,5.087-4.465
	c0-2.477-2.26-4.496-5.087-4.496c-2.828,0-5.089,2.02-5.089,4.496C87.267,27.126,89.486,29.202,92.356,29.202"/>
<path fill="#696969" d="M104.849,27.474c0.141,1.289,1.139,1.729,1.996,1.729c1.098,0,2.07-0.646,2.07-1.625
	c0-1.325-0.994-1.564-2.865-2.177c-1.162-0.384-3.586-0.993-3.586-3.712c0-2.057,1.873-3.68,4.42-3.68
	c1.75,0,4.315,1.048,4.459,3.68h-2.85c-0.127-1.152-0.939-1.447-1.688-1.447c-0.879,0-1.551,0.539-1.551,1.307
	c0,1.116,0.973,1.357,2.506,1.797c1.24,0.348,3.943,1.166,3.943,3.972c0,2.79-2.522,4.112-4.882,4.112
	c-1.935,0-4.739-1.113-4.903-3.955H104.849z"/>
<path fill="#696969" d="M115.673,18.009c-1.235,0-2.285,0.95-2.285,2.238c0,1.295,1.05,2.246,2.285,2.246
	c1.223,0,2.265-0.951,2.265-2.246C117.938,18.959,116.896,18.009,115.673,18.009 M115.673,22.124c-1.028,0-1.828-0.795-1.828-1.877
	c0-1.061,0.8-1.865,1.828-1.865c1.017,0,1.814,0.805,1.814,1.865C117.488,21.329,116.69,22.124,115.673,22.124"/>
<path fill="#696969" d="M116.029,20.403c0.383-0.045,0.673-0.246,0.673-0.705c0-0.512-0.298-0.739-0.913-0.739h-0.982v2.583h0.388
	v-1.115h0.454l0.68,1.115h0.442L116.029,20.403z M115.194,20.095v-0.801h0.535c0.269,0,0.563,0.05,0.563,0.377
	c0,0.395-0.294,0.424-0.619,0.424H115.194z"/>
<path fill="#3D3A37" d="M0.539,40.874h5.777v1.871H2.467v1.08h3.164v1.745H2.467v0.964h3.848v1.861H0.539V40.874z"/>
<path fill="#3D3A37" d="M8.504,40.874h3.491c0.585,0,1.101,0.1,1.548,0.299s0.818,0.471,1.114,0.814s0.519,0.744,0.67,1.201
	c0.151,0.457,0.227,0.938,0.227,1.446c0,0.515-0.076,1-0.227,1.456c-0.151,0.457-0.375,0.855-0.67,1.196s-0.667,0.61-1.114,0.81
	s-0.963,0.299-1.548,0.299H8.504V40.874z M10.433,42.745v3.789h1.418c0.289,0,0.543-0.046,0.762-0.139
	c0.218-0.094,0.402-0.225,0.55-0.391c0.148-0.168,0.259-0.367,0.333-0.599s0.111-0.488,0.111-0.771c0-0.565-0.148-1.022-0.443-1.37
	c-0.296-0.347-0.733-0.52-1.312-0.52H10.433z"/>
<path fill="#3D3A37" d="M19.576,40.874v7.521h-1.929v-7.521H19.576z"/>
<path fill="#3D3A37" d="M29.191,46.38c-0.167,0.322-0.373,0.615-0.617,0.878c-0.245,0.264-0.521,0.491-0.83,0.681
	s-0.643,0.337-1.003,0.443c-0.36,0.105-0.733,0.158-1.119,0.158c-0.54,0-1.053-0.103-1.538-0.309
	c-0.485-0.205-0.91-0.484-1.273-0.838s-0.651-0.768-0.863-1.24c-0.212-0.473-0.318-0.979-0.318-1.519s0.106-1.046,0.318-1.519
	c0.212-0.473,0.5-0.886,0.863-1.24c0.363-0.354,0.788-0.633,1.273-0.838c0.485-0.206,0.998-0.309,1.538-0.309
	c0.386,0,0.757,0.053,1.114,0.158c0.357,0.106,0.69,0.253,0.999,0.439s0.585,0.411,0.829,0.675s0.45,0.554,0.617,0.868l-1.755,0.791
	c-0.167-0.322-0.41-0.58-0.729-0.777c-0.318-0.195-0.677-0.293-1.075-0.293c-0.283,0-0.548,0.053-0.795,0.158
	c-0.248,0.106-0.465,0.251-0.651,0.435c-0.187,0.183-0.333,0.399-0.439,0.651c-0.106,0.25-0.159,0.518-0.159,0.8
	c0,0.283,0.053,0.55,0.159,0.8c0.106,0.252,0.252,0.469,0.439,0.652c0.186,0.183,0.403,0.327,0.651,0.434
	c0.247,0.105,0.513,0.158,0.795,0.158c0.405,0,0.765-0.098,1.08-0.293c0.315-0.197,0.556-0.455,0.724-0.777L29.191,46.38z"/>
<path fill="#3D3A37" d="M33.048,40.874v7.521H31.12v-7.521H33.048z"/>
<path fill="#3D3A37" d="M35.102,44.635c0-0.54,0.106-1.046,0.318-1.519c0.212-0.473,0.5-0.886,0.863-1.24
	c0.363-0.354,0.788-0.633,1.273-0.838c0.485-0.206,0.998-0.309,1.538-0.309c0.546,0,1.063,0.103,1.548,0.309
	c0.485,0.205,0.91,0.484,1.273,0.838c0.363,0.354,0.649,0.768,0.858,1.24s0.313,0.979,0.313,1.519s-0.104,1.046-0.313,1.519
	s-0.495,0.887-0.858,1.24s-0.788,0.633-1.273,0.838c-0.485,0.206-1.001,0.309-1.548,0.309c-0.54,0-1.053-0.103-1.538-0.309
	c-0.485-0.205-0.91-0.484-1.273-0.838s-0.651-0.768-0.863-1.24C35.208,45.681,35.102,45.175,35.102,44.635z M37.05,44.635
	c0,0.283,0.053,0.55,0.159,0.8c0.106,0.252,0.252,0.469,0.439,0.652c0.186,0.183,0.403,0.327,0.651,0.434
	c0.247,0.105,0.513,0.158,0.795,0.158c0.29,0,0.558-0.053,0.805-0.158c0.248-0.106,0.463-0.251,0.646-0.434
	c0.183-0.184,0.328-0.4,0.434-0.652c0.106-0.25,0.159-0.517,0.159-0.8c0-0.282-0.053-0.55-0.159-0.8
	c-0.106-0.252-0.25-0.469-0.434-0.651C40.363,43,40.147,42.855,39.9,42.749c-0.248-0.105-0.516-0.158-0.805-0.158
	c-0.283,0-0.548,0.053-0.795,0.158c-0.248,0.106-0.465,0.251-0.651,0.435c-0.187,0.183-0.333,0.399-0.439,0.651
	C37.104,44.085,37.05,44.353,37.05,44.635z M37.388,39.389l2.508-1.784l0.935,1.62l-2.796,1.282L37.388,39.389z"/>
<path fill="#3D3A37" d="M45.142,48.396v-7.521h1.64l3.356,4.205v-4.205h1.919v7.521h-1.63L47.07,44.2v4.195H45.142z"/>
<path fill="#3D3A37" d="M60.389,48.396l-3.038-7.521h2.103l1.89,5.053l1.9-5.053h2.103l-3.048,7.521H60.389z"/>
<path fill="#3D3A37" d="M69.107,40.874v7.521h-1.929v-7.521H69.107z"/>
<path fill="#3D3A37" d="M75.192,40.874c0.482,0,0.899,0.072,1.254,0.217c0.354,0.145,0.646,0.342,0.878,0.593
	c0.23,0.251,0.402,0.544,0.516,0.878c0.112,0.334,0.168,0.688,0.168,1.061c0,0.264-0.029,0.521-0.091,0.771
	c-0.062,0.251-0.153,0.484-0.274,0.699c-0.123,0.216-0.277,0.412-0.463,0.588c-0.188,0.178-0.406,0.324-0.656,0.439l1.63,2.275
	h-2.306L74.42,46.38h-0.983v2.016h-1.92v-7.521H75.192z M73.437,42.629v2.006h1.648c0.193,0,0.357-0.027,0.492-0.082
	c0.135-0.054,0.244-0.127,0.328-0.217s0.145-0.196,0.184-0.318c0.038-0.122,0.058-0.247,0.058-0.376
	c0-0.289-0.081-0.531-0.241-0.724c-0.161-0.192-0.434-0.289-0.82-0.289H73.437z"/>
<path fill="#3D3A37" d="M79.696,40.874h6.616v1.871h-2.344v5.65h-1.93v-5.65h-2.343V40.874z"/>
<path fill="#3D3A37" d="M95.068,40.874v4.233c0,0.481-0.076,0.933-0.227,1.351s-0.373,0.781-0.666,1.09
	c-0.292,0.309-0.654,0.551-1.084,0.728c-0.432,0.177-0.926,0.265-1.485,0.265c-0.565,0-1.064-0.088-1.495-0.265
	s-0.791-0.419-1.08-0.728s-0.508-0.672-0.656-1.09c-0.147-0.418-0.221-0.869-0.221-1.351v-4.233h1.928v4.117
	c0,0.547,0.129,0.965,0.387,1.254c0.257,0.289,0.637,0.434,1.138,0.434c0.508,0,0.892-0.145,1.152-0.434s0.391-0.707,0.391-1.254
	v-4.117H95.068z"/>
<path fill="#3D3A37" d="M101.385,40.874l3.038,7.521h-2.103l-0.415-1.1h-2.961l-0.414,1.1h-2.103l3.048-7.521H101.385z
	 M100.431,43.343l-0.83,2.208h1.648L100.431,43.343z"/>
<path fill="#3D3A37" d="M106.255,40.874h1.919v5.66h3.606v1.861h-5.525V40.874z"/>
</svg>
